<svg width="32" height="32" viewBox="0 0 32 32" fill="none" xmlns="http://www.w3.org/2000/svg">
<path d="M19.76 5.67981C19.4952 6.15406 19.2592 6.64384 19.0533 7.14648C17.0304 6.82654 14.9697 6.82654 12.9467 7.14648C12.7408 6.64384 12.5048 6.15406 12.24 5.67981C10.3344 6.00541 8.48188 6.58853 6.73335 7.41314C3.6066 11.9255 2.18859 17.4037 2.73334 22.8665C4.771 24.3983 7.05796 25.5666 9.49334 26.3198C10.0479 25.5873 10.5428 24.8115 10.9733 23.9998C10.1788 23.7069 9.41507 23.3362 8.69334 22.8931C8.89129 22.7614 9.07854 22.6143 9.25334 22.4531C11.358 23.4669 13.664 23.9933 16 23.9933C18.3361 23.9933 20.6421 23.4669 22.7467 22.4531C22.9333 22.6131 23.12 22.7598 23.3067 22.8931C22.581 23.3327 21.8181 23.7074 21.0267 24.0131C21.4394 24.8432 21.921 25.6371 22.4667 26.3865C24.899 25.6358 27.182 24.4673 29.2133 22.9331C29.7712 17.4694 28.352 11.9867 25.2133 7.47981C23.4844 6.63813 21.6502 6.0327 19.76 5.67981ZM11.5733 19.7465C10.9061 19.6986 10.2834 19.3941 9.83591 18.8968C9.38841 18.3996 9.15094 17.7484 9.17334 17.0798C9.14756 16.4104 9.38386 15.7573 9.83203 15.2593C10.2802 14.7613 10.9049 14.4578 11.5733 14.4131C12.2418 14.4578 12.8665 14.7613 13.3147 15.2593C13.7628 15.7573 13.9991 16.4104 13.9733 17.0798C13.9991 17.7493 13.7628 18.4024 13.3147 18.9003C12.8665 19.3983 12.2418 19.7018 11.5733 19.7465ZM20.4267 19.7465C19.7595 19.6986 19.1367 19.3941 18.6892 18.8968C18.2417 18.3996 18.0043 17.7484 18.0267 17.0798C18.0009 16.4104 18.2372 15.7573 18.6854 15.2593C19.1335 14.7613 19.7582 14.4578 20.4267 14.4131C21.0964 14.4544 21.7231 14.757 22.1719 15.2557C22.6208 15.7545 22.8559 16.4095 22.8267 17.0798C22.8559 17.7501 22.6208 18.4052 22.1719 18.9039C21.7231 19.4026 21.0964 19.7052 20.4267 19.7465Z" fill="#ABABAB"/>
</svg>
