<svg width="32" height="32" viewBox="0 0 32 32" fill="none" xmlns="http://www.w3.org/2000/svg">
<path fill-rule="evenodd" clip-rule="evenodd" d="M10.4779 22.59C9.28235 22.5599 8.12547 22.1506 7.16718 21.4186C6.2089 20.6866 5.49656 19.668 5.12866 18.5038C5.94623 18.6624 6.78779 18.6364 7.59453 18.4277C7.62325 18.4169 7.65115 18.4039 7.67802 18.389C6.90719 18.2249 6.17758 17.9004 5.53453 17.4356C4.89148 16.9708 4.34874 16.3756 3.94008 15.6871C3.36947 14.7484 3.07674 13.6606 3.09725 12.5554C3.88394 12.9968 4.76154 13.2415 5.65836 13.2696C4.4572 12.4265 3.6111 11.1508 3.28904 9.69731C2.95475 8.24716 3.17556 6.72109 3.90617 5.43224C5.35771 7.24671 7.16346 8.73116 9.20787 9.79061C11.2523 10.8501 13.4904 11.4612 15.7789 11.5849C15.7449 11.3526 15.7097 11.147 15.6862 10.9401C15.5107 9.59527 15.8091 8.23044 16.5278 7.09021C16.9479 6.38114 17.5152 5.77519 18.1896 5.31522C18.8639 4.85525 19.6288 4.5525 20.4301 4.42838C21.3372 4.25717 22.2715 4.31743 23.1504 4.60383C24.0293 4.89023 24.8256 5.39393 25.4688 6.07033C25.5053 6.11461 25.5536 6.14703 25.6078 6.16362C25.6621 6.18022 25.7198 6.18027 25.7741 6.16378C26.9501 5.90495 28.0796 5.46044 29.1219 4.84621C29.1469 4.83154 29.1726 4.81818 29.1989 4.80616C29.1989 4.80616 29.2133 4.80616 29.2367 4.80616C28.8038 6.13455 27.9324 7.26731 26.7722 8.00997C27.8782 7.88328 28.959 7.58577 29.9778 7.12759L30 7.15429C29.7795 7.4493 29.5681 7.751 29.3398 8.03667C28.7323 8.80373 28.0307 9.4875 27.2523 10.0711C27.2211 10.0899 27.1957 10.1172 27.1789 10.15C27.162 10.1828 27.1545 10.2197 27.1571 10.2566C27.1906 11.1299 27.1548 12.0044 27.0501 12.8717C26.8291 14.6887 26.3284 16.4585 25.5666 18.1153C24.7898 19.829 23.7385 21.3978 22.4563 22.7568C20.3217 25.0376 17.566 26.6088 14.5472 27.2662C13.4925 27.4987 12.4189 27.6292 11.3403 27.656C8.09238 27.774 4.88442 26.8933 2.13048 25.1276C2.09525 25.1063 2.05871 25.0796 2 25.0369C3.9554 25.269 5.93642 24.9898 7.75762 24.2252C8.73421 23.8121 9.64977 23.2617 10.4779 22.59Z" fill="#ABABAB"/>
</svg>
